<svg width="1153" height="171" viewBox="0 0 1153 171" fill="none" xmlns="http://www.w3.org/2000/svg">
<path d="M37.565 35.1468C33.4437 39.055 28.3187 41.0091 22.1811 41.0091C16.0435 41.0091 10.9185 39.055 6.79712 35.1468C2.67578 31.2387 0.615112 26.3535 0.615112 20.509C0.615112 14.6556 2.67578 9.77929 6.79712 5.87113C10.9185 1.96296 16.0435 0 22.1811 0C28.3187 0 33.4437 1.95408 37.565 5.87113C41.6864 9.77929 43.747 14.6645 43.747 20.509C43.747 26.3535 41.6864 31.2387 37.565 35.1468Z" fill="white"/>
<path d="M205.909 25.7495H249.254V51.3302H269.763V82.7287H249.254V125.861C249.254 133.26 253.624 136.963 262.364 136.963C265.18 136.963 267.649 136.786 269.763 136.43V166.452C264.62 167.509 258.66 168.033 251.901 168.033C235.478 168.033 223.709 165.493 216.594 160.421C209.48 155.35 205.918 147.036 205.918 135.471V82.7198H190.481V51.3302H205.918V25.7495H205.909Z" fill="white"/>
<path fill-rule="evenodd" clip-rule="evenodd" d="M399.684 130.195H361.099C359.829 133.65 357.555 136.359 354.296 138.331C351.018 140.303 347.163 141.289 342.722 141.289C336.94 141.289 332.179 139.441 328.448 135.738C324.709 132.034 322.844 127.335 322.844 121.624V118.879H400.225V107.146C400.225 89.3192 394.834 75.0632 384.051 64.3868C373.268 53.7105 358.817 48.3723 340.706 48.3723C322.382 48.3723 307.86 53.9236 297.148 65.0264C286.436 76.1291 281.08 91.2288 281.08 110.326C281.08 129.28 286.471 144.131 297.254 154.879C308.037 165.626 322.977 171 342.074 171C358.071 171 371.207 167.349 381.502 160.057C391.787 152.765 397.854 142.808 399.684 130.195ZM329.177 83.0484C332.552 79.8064 336.718 78.1809 341.647 78.1809C346.719 78.1809 350.929 79.7531 354.278 82.8974C357.626 86.0328 359.474 90.2074 359.829 95.4213H323.465C323.892 90.4117 325.793 86.2904 329.177 83.0484Z" fill="white"/>
<path d="M413.957 168.042V15.4905H457.302V168.033H413.957V168.042Z" fill="white"/>
<path d="M474.632 168.042V15.4905H517.977V168.033H474.632V168.042Z" fill="white"/>
<path fill-rule="evenodd" clip-rule="evenodd" d="M556.459 41.0091C562.597 41.0091 567.722 39.055 571.843 35.1468C575.965 31.2387 578.025 26.3535 578.025 20.509C578.025 14.6645 575.965 9.77929 571.843 5.87113C567.722 1.95408 562.597 0 556.459 0C550.322 0 545.197 1.96296 541.075 5.87113C536.954 9.77929 534.893 14.6556 534.893 20.509C534.893 26.3535 536.954 31.2387 541.075 35.1468C545.197 39.055 550.322 41.0091 556.459 41.0091ZM534.782 51.3301V168.033H578.127V51.3301H534.782Z" fill="white"/>
<path d="M604.871 25.7495H648.216V51.3302H668.725V82.7287H648.216V125.861C648.216 133.26 652.586 136.963 661.326 136.963C664.142 136.963 666.611 136.786 668.725 136.43V166.452C663.582 167.509 657.622 168.033 650.863 168.033C634.44 168.033 622.671 165.493 615.556 160.421C608.441 155.35 604.88 147.036 604.88 135.471V82.7198H589.442V51.3302H604.88V25.7495H604.871Z" fill="white"/>
<path d="M682.99 168.042V51.3302H725.278V74.2729H726.122C730.492 57.8497 739.579 49.6425 753.399 49.6425C757.139 49.6425 760.514 50.211 763.552 51.3302V87.6939C759.75 86.0773 755.549 85.2601 750.975 85.2601C734.551 85.2601 726.344 93.4673 726.344 109.89V168.033H682.99V168.042Z" fill="white"/>
<path fill-rule="evenodd" clip-rule="evenodd" d="M777.817 159.631C785.491 166.363 794.764 169.73 805.618 169.73C812.741 169.73 819.412 168.211 825.647 165.191C831.883 162.162 836.483 157.899 839.441 152.401H840.285V168.042H882.573V88.2267C882.573 76.3867 877.608 66.785 867.669 59.4217C857.73 52.0584 844.691 48.3723 828.552 48.3723C811.64 48.3723 798.175 52.0228 788.173 59.3151C778.163 66.6074 772.878 76.5288 772.319 89.0705H811.009C811.365 85.9706 812.919 83.3947 815.664 81.3518C818.408 79.3089 821.934 78.2875 826.233 78.2875C830.399 78.2875 833.774 79.3445 836.386 81.4584C838.988 83.5724 840.294 86.539 840.294 90.3406V96.0519L814.713 97.6329C798.992 98.6188 786.992 102.163 778.714 108.256C770.435 114.349 766.296 122.965 766.296 134.103C766.296 144.389 770.133 152.898 777.817 159.631ZM834.796 136.91C831.127 139.477 826.793 140.765 821.792 140.765C817.92 140.765 814.82 139.868 812.493 138.065C810.165 136.27 809.002 133.819 809.002 130.719C809.002 127.832 810.13 125.47 812.386 123.64C814.642 121.81 817.813 120.753 821.899 120.469L840.294 119.199V126.811C840.294 130.977 838.464 134.334 834.796 136.91Z" fill="white"/>
<path fill-rule="evenodd" clip-rule="evenodd" d="M907.843 153.822C915.81 164.427 926.975 169.73 941.356 169.73C949.882 169.73 957.335 167.651 963.712 163.486C970.089 159.329 974.3 154.115 976.343 147.844H977.186V168.033H1020.53V15.4905H977.186V72.3721H976.343C974.024 65.6038 969.805 60.1235 963.712 55.9311C957.61 51.7387 950.407 49.6425 942.093 49.6425C927.579 49.6425 916.246 54.9097 908.11 65.444C899.965 75.9782 895.896 90.6161 895.896 109.366C895.896 128.401 899.876 143.216 907.843 153.822ZM958.8 83.0484C964.573 83.0484 969.121 85.4111 972.434 90.1275C975.747 94.8529 977.399 101.408 977.408 109.793C977.408 118.186 975.774 124.697 972.496 129.351C969.219 133.997 964.653 136.324 958.809 136.324C952.964 136.324 948.417 133.988 945.175 129.298C941.933 124.608 940.307 118.071 940.307 109.686C940.307 101.443 941.942 94.9417 945.219 90.1808C948.497 85.4289 953.018 83.0484 958.8 83.0484Z" fill="white"/>
<path fill-rule="evenodd" clip-rule="evenodd" d="M1152.46 130.195H1113.87C1112.61 133.65 1110.34 136.359 1107.07 138.331C1103.79 140.303 1099.94 141.289 1095.5 141.289C1089.71 141.289 1084.95 139.441 1081.22 135.738C1077.48 132.034 1075.62 127.335 1075.62 121.624V118.879H1153V107.146C1153 89.3192 1147.61 75.0632 1136.83 64.3868C1126.04 53.7105 1111.59 48.3723 1093.48 48.3723C1075.16 48.3723 1060.63 53.9236 1049.92 65.0264C1039.21 76.1291 1033.85 91.2288 1033.85 110.326C1033.85 129.28 1039.25 144.131 1050.03 154.879C1060.81 165.626 1075.75 171 1094.85 171C1110.85 171 1123.98 167.349 1134.28 160.057C1144.56 152.765 1150.63 142.808 1152.46 130.195ZM1081.95 83.0484C1085.33 79.8064 1089.49 78.1809 1094.42 78.1809C1099.5 78.1809 1103.71 79.7531 1107.05 82.8974C1110.4 86.0328 1112.25 90.2074 1112.6 95.4213H1076.24C1076.67 90.4117 1078.57 86.2904 1081.95 83.0484Z" fill="white"/>
<path d="M40.9761 149.656L30.0243 130.692H41.4735V51.33H0.51767V168.042H43.8539H51.5903L40.9761 149.656Z" fill="white"/>
<path d="M169.182 60.5854C162.165 52.8667 152.146 49.0119 139.106 49.0119C130.295 49.0119 122.861 51.1614 116.803 55.4603C110.737 59.7593 106.233 66.0302 103.276 74.2728H102.432V51.3301H62.3732V130.693H73.8224L62.8706 149.656L52.2564 168.042H60.1349H79.8711H103.48H109.467V118.631H98.0175L108.969 99.667L119.921 80.7035L130.873 99.667L141.816 118.631H130.366V168.042H136.353H155.956H179.698V93.3074C179.698 79.2024 176.19 68.2951 169.182 60.5854Z" fill="white"/>
</svg>
