<svg width="20" height="20" viewBox="0 0 20 20" fill="none" xmlns="http://www.w3.org/2000/svg">
<path fill-rule="evenodd" clip-rule="evenodd" d="M10 0C7.2375 0 5 2.2375 5 5C5 7.7625 7.2375 10 10 10C12.7625 10 15 7.7625 15 5C15 2.2375 12.7625 0 10 0ZM12.5 5C12.5 3.625 11.375 2.5 10 2.5C8.625 2.5 7.5 3.625 7.5 5C7.5 6.375 8.625 7.5 10 7.5C11.375 7.5 12.5 6.375 12.5 5ZM17.5 17.5C17.25 16.6125 13.375 15 10 15C6.6375 15 2.7875 16.6 2.5 17.5H17.5ZM0 17.5C0 14.175 6.6625 12.5 10 12.5C13.3375 12.5 20 14.175 20 17.5V20H0V17.5Z" fill="white"/>
</svg>
