<svg width="50" height="50" viewBox="0 0 50 50" fill="none" xmlns="http://www.w3.org/2000/svg">
<g filter="url(#filter0_d)">
<rect x="4" y="2" width="42" height="42" rx="10" fill="#D8D8D8"/>
<rect x="4" y="2" width="42" height="42" rx="10" fill="white"/>
</g>
<path fill-rule="evenodd" clip-rule="evenodd" d="M18.049 21.721C16.5223 20.663 15.6071 20.0267 15.3035 19.8125C14.75 19.4375 14.2276 18.9219 13.7366 18.2656C13.2456 17.6094 13 16.9998 13 16.4374C13 15.741 13.1852 15.1606 13.5557 14.6963C13.9263 14.2321 14.4553 14 15.1428 14H34.857C35.4372 14 35.9395 14.2097 36.3636 14.6294C36.7878 15.049 37 15.5535 37 16.1429C37 16.8482 36.7813 17.5223 36.3436 18.1649C35.9061 18.8078 35.3616 19.357 34.7098 19.8122C31.3528 22.1426 29.2634 23.5936 28.4421 24.1649C28.3528 24.2275 28.1629 24.3635 27.8728 24.5735C27.5826 24.7834 27.3416 24.9531 27.1496 25.0825C26.9576 25.2119 26.7255 25.3569 26.4533 25.5177C26.1811 25.6781 25.9242 25.799 25.6832 25.8789C25.4421 25.9594 25.2188 25.9994 25.0135 25.9994H25H24.9865C24.7812 25.9994 24.558 25.9595 24.3169 25.8789C24.0758 25.799 23.8191 25.6782 23.5467 25.5177C23.2743 25.357 23.0422 25.2119 22.8502 25.0825C22.6583 24.9531 22.4172 24.7834 22.127 24.5735C21.8369 24.3636 21.6472 24.2275 21.558 24.1649C20.7455 23.5936 19.5758 22.779 18.049 21.721ZM28.9911 25.866C30.5088 24.7676 32.7323 23.2273 35.6605 21.2454C36.1697 20.8972 36.616 20.5086 37 20.0802V30.7138C37 31.3035 36.7904 31.8076 36.3706 32.2274C35.9509 32.6471 35.4464 32.857 34.8572 32.857H15.1429C14.5536 32.857 14.049 32.6471 13.6294 32.2274C13.2097 31.8077 13 31.3035 13 30.7138V20.0802C13.3929 20.5177 13.8438 20.9063 14.3528 21.2454C17.5849 23.4417 19.8036 24.9821 21.009 25.866C21.5179 26.2408 21.9309 26.5334 22.2478 26.7431C22.5647 26.9529 22.9867 27.1672 23.5134 27.3859C24.0401 27.6048 24.5312 27.714 24.9866 27.714H25H25.0137C25.4691 27.714 25.96 27.6048 26.4867 27.3859C27.0136 27.1672 27.4352 26.9529 27.7523 26.7431C28.0693 26.5334 28.4822 26.2408 28.9911 25.866Z" fill="#00BE38"/>
<defs>
<filter id="filter0_d" x="0" y="0" width="50" height="50" filterUnits="userSpaceOnUse" color-interpolation-filters="sRGB">
<feFlood flood-opacity="0" result="BackgroundImageFix"/>
<feColorMatrix in="SourceAlpha" type="matrix" values="0 0 0 0 0 0 0 0 0 0 0 0 0 0 0 0 0 0 127 0"/>
<feOffset dy="2"/>
<feGaussianBlur stdDeviation="2"/>
<feColorMatrix type="matrix" values="0 0 0 0 0 0 0 0 0 0 0 0 0 0 0 0 0 0 0.15 0"/>
<feBlend mode="normal" in2="BackgroundImageFix" result="effect1_dropShadow"/>
<feBlend mode="normal" in="SourceGraphic" in2="effect1_dropShadow" result="shape"/>
</filter>
</defs>
</svg>
