<svg width="283" height="42" viewBox="0 0 283 42" fill="none" xmlns="http://www.w3.org/2000/svg">
<path d="M9.17687 8.67627C8.16713 9.63379 6.91148 10.1125 5.40775 10.1125C3.90402 10.1125 2.64838 9.63379 1.63863 8.67627C0.628894 7.71876 0.124023 6.52187 0.124023 5.08995C0.124023 3.65586 0.628894 2.46114 1.63863 1.50363C2.64838 0.546118 3.90402 0.0651855 5.40775 0.0651855C6.91148 0.0651855 8.16713 0.543942 9.17687 1.50363C10.1866 2.46114 10.6915 3.65804 10.6915 5.08995C10.6915 6.52187 10.1866 7.71876 9.17687 8.67627Z" fill="url(#paint0_radial)"/>
<path d="M50.4217 6.37402H61.0414V12.6414H66.0662V20.3341H61.0414V30.9016C61.0414 32.7143 62.1121 33.6218 64.2534 33.6218C64.9433 33.6218 65.5483 33.5783 66.0662 33.4912V40.8467C64.8062 41.1056 63.346 41.234 61.6899 41.234C57.6662 41.234 54.7828 40.6116 53.0397 39.369C51.2965 38.1265 50.4239 36.0896 50.4239 33.2562V20.332H46.6417V12.6414H50.4239V6.37402H50.4217Z" fill="url(#paint1_radial)"/>
<path fill-rule="evenodd" clip-rule="evenodd" d="M97.897 31.9636H88.4437C88.1325 32.8101 87.5754 33.4738 86.7768 33.957C85.9738 34.4401 85.0293 34.6816 83.9412 34.6816C82.5245 34.6816 81.3581 34.229 80.4441 33.3215C79.528 32.4141 79.071 31.2629 79.071 29.8636V29.1912H98.0297V26.3164C98.0297 21.9489 96.7088 18.4561 94.0669 15.8404C91.425 13.2246 87.8844 11.9167 83.4472 11.9167C78.9578 11.9167 75.3998 13.2769 72.7753 15.9971C70.1509 18.7173 68.8386 22.4167 68.8386 27.0955C68.8386 31.7394 70.1596 35.378 72.8014 38.0112C75.4433 40.6443 79.1036 41.9609 83.7824 41.9609C87.7016 41.9609 90.9202 41.0665 93.4424 39.2799C95.9624 37.4932 97.4487 35.0537 97.897 31.9636ZM80.6226 20.4125C81.4495 19.6182 82.4701 19.22 83.6779 19.22C84.9205 19.22 85.952 19.6051 86.7724 20.3755C87.5928 21.1437 88.0455 22.1665 88.1325 23.4439H79.2233C79.3277 22.2165 79.7934 21.2068 80.6226 20.4125Z" fill="url(#paint2_radial)"/>
<path d="M101.394 41.2362V3.8606H112.014V41.2341H101.394V41.2362Z" fill="url(#paint3_radial)"/>
<path d="M116.26 41.2362V3.8606H126.879V41.2341H116.26V41.2362Z" fill="url(#paint4_radial)"/>
<path fill-rule="evenodd" clip-rule="evenodd" d="M136.306 10.1125C137.81 10.1125 139.066 9.63379 140.075 8.67627C141.085 7.71876 141.59 6.52187 141.59 5.08995C141.59 3.65804 141.085 2.46114 140.075 1.50363C139.066 0.543942 137.81 0.0651855 136.306 0.0651855C134.803 0.0651855 133.547 0.546118 132.537 1.50363C131.527 2.46114 131.023 3.65586 131.023 5.08995C131.023 6.52187 131.527 7.71876 132.537 8.67627C133.547 9.63379 134.803 10.1125 136.306 10.1125ZM130.996 12.6412V41.2339H141.616V12.6412H130.996Z" fill="url(#paint5_radial)"/>
<path d="M148.169 6.37402H158.788V12.6414H163.813V20.3341H158.788V30.9016C158.788 32.7143 159.859 33.6218 162 33.6218C162.69 33.6218 163.295 33.5783 163.813 33.4912V40.8467C162.553 41.1056 161.093 41.234 159.437 41.234C155.413 41.234 152.53 40.6116 150.786 39.369C149.043 38.1265 148.171 36.0896 148.171 33.2562V20.332H144.389V12.6414H148.171V6.37402H148.169Z" fill="url(#paint6_radial)"/>
<path d="M167.308 41.2361V12.6413H177.669V18.2623H177.875C178.946 14.2386 181.172 12.2278 184.558 12.2278C185.475 12.2278 186.302 12.3671 187.046 12.6413V21.5505C186.114 21.1544 185.085 20.9542 183.964 20.9542C179.941 20.9542 177.93 22.965 177.93 26.9887V41.2339H167.308V41.2361Z" fill="url(#paint7_radial)"/>
<path fill-rule="evenodd" clip-rule="evenodd" d="M190.541 39.1754C192.421 40.8249 194.693 41.6497 197.352 41.6497C199.097 41.6497 200.732 41.2776 202.259 40.5377C203.787 39.7956 204.914 38.751 205.639 37.404H205.846V41.2362H216.206V21.6812C216.206 18.7804 214.99 16.4279 212.555 14.6239C210.12 12.8199 206.925 11.9167 202.971 11.9167C198.828 11.9167 195.529 12.8112 193.078 14.5978C190.626 16.3844 189.331 18.8152 189.194 21.8879H198.673C198.76 21.1285 199.141 20.4974 199.813 19.9969C200.486 19.4963 201.35 19.2461 202.403 19.2461C203.424 19.2461 204.251 19.505 204.89 20.023C205.528 20.5409 205.848 21.2677 205.848 22.1991V23.5984L199.581 23.9858C195.729 24.2273 192.789 25.0956 190.761 26.5885C188.732 28.0813 187.718 30.1922 187.718 32.9211C187.718 35.4411 188.658 37.5259 190.541 39.1754ZM204.501 33.6088C203.602 34.2377 202.54 34.5532 201.315 34.5532C200.366 34.5532 199.607 34.3334 199.036 33.8917C198.466 33.4521 198.181 32.8515 198.181 32.092C198.181 31.3847 198.458 30.8059 199.01 30.3576C199.563 29.9093 200.34 29.6503 201.341 29.5807L205.848 29.2695V31.1345C205.848 32.1551 205.4 32.9777 204.501 33.6088Z" fill="url(#paint8_radial)"/>
<path fill-rule="evenodd" clip-rule="evenodd" d="M222.398 37.7522C224.35 40.3505 227.085 41.6497 230.608 41.6497C232.697 41.6497 234.523 41.1405 236.086 40.1199C237.648 39.1014 238.68 37.824 239.18 36.2876H239.387V41.2341H250.007V3.8606H239.387V17.7968H239.18C238.612 16.1385 237.579 14.7958 236.086 13.7687C234.591 12.7415 232.826 12.228 230.789 12.228C227.233 12.228 224.456 13.5184 222.463 16.0994C220.467 18.6803 219.471 22.2666 219.471 26.8605C219.471 31.524 220.446 35.1539 222.398 37.7522ZM234.882 20.4125C236.297 20.4125 237.411 20.9914 238.223 22.1469C239.034 23.3046 239.439 24.9106 239.441 26.9649C239.441 29.0214 239.041 30.6166 238.238 31.7569C237.435 32.895 236.316 33.4652 234.884 33.4652C233.453 33.4652 232.338 32.8928 231.544 31.7438C230.75 30.5948 230.352 28.9931 230.352 26.9388C230.352 24.9194 230.752 23.3264 231.555 22.16C232.358 20.9957 233.466 20.4125 234.882 20.4125Z" fill="url(#paint9_radial)"/>
<path fill-rule="evenodd" clip-rule="evenodd" d="M282.329 31.9636H272.876C272.567 32.8101 272.01 33.4738 271.209 33.957C270.406 34.4401 269.462 34.6816 268.373 34.6816C266.957 34.6816 265.79 34.229 264.876 33.3215C263.96 32.4141 263.503 31.2629 263.503 29.8636V29.1912H282.462V26.3164C282.462 21.9489 281.141 18.4561 278.499 15.8404C275.857 13.2246 272.317 11.9167 267.879 11.9167C263.39 11.9167 259.832 13.2769 257.208 15.9971C254.583 18.7173 253.271 22.4167 253.271 27.0955C253.271 31.7394 254.592 35.378 257.234 38.0112C259.876 40.6443 263.536 41.9609 268.215 41.9609C272.134 41.9609 275.352 41.0665 277.875 39.2799C280.395 37.4932 281.881 35.0537 282.329 31.9636ZM265.055 20.4125C265.882 19.6182 266.902 19.22 268.11 19.22C269.355 19.22 270.386 19.6051 271.205 20.3755C272.025 21.1437 272.478 22.1665 272.565 23.4439H263.656C263.76 22.2165 264.226 21.2068 265.055 20.4125Z" fill="url(#paint10_radial)"/>
<path d="M10.0125 36.7315L7.32932 32.0854H10.1344V12.6414H0.100098V41.2362H10.7176H12.6131L10.0125 36.7315Z" fill="url(#paint11_radial)"/>
<path d="M41.4233 14.909C39.7041 13.0179 37.2494 12.0735 34.0548 12.0735C31.896 12.0735 30.0746 12.6001 28.5904 13.6534C27.1041 14.7066 26.0008 16.243 25.2761 18.2625H25.0694V12.6415H15.2549V32.0855H18.06L15.3768 36.7316L12.7762 41.2363H14.7065H19.5419H25.3262H26.7929V29.1303H23.9879L26.6711 24.4842L29.3543 19.838L32.0375 24.4842L34.7185 29.1303H31.9134V41.2363H33.3802H38.183H43.9999V22.926C43.9999 19.4703 43.1403 16.7979 41.4233 14.909Z" fill="url(#paint12_radial)"/>
<defs>
<radialGradient id="paint0_radial" cx="0" cy="0" r="1" gradientUnits="userSpaceOnUse" gradientTransform="translate(5.40882 5.08895) scale(5.1556 4.90185)">
<stop offset="0.3156" stop-color="#229BEE"/>
<stop offset="1" stop-color="#007FF5"/>
</radialGradient>
<radialGradient id="paint1_radial" cx="0" cy="0" r="1" gradientUnits="userSpaceOnUse" gradientTransform="translate(56.3535 23.8046) scale(14.1095 25.3216)">
<stop stop-color="#38393A"/>
<stop offset="1" stop-color="#212324"/>
</radialGradient>
<radialGradient id="paint2_radial" cx="0" cy="0" r="1" gradientUnits="userSpaceOnUse" gradientTransform="translate(83.432 26.9386) scale(14.8099 15.2426)">
<stop stop-color="#38393A"/>
<stop offset="1" stop-color="#212324"/>
</radialGradient>
<radialGradient id="paint3_radial" cx="0" cy="0" r="1" gradientUnits="userSpaceOnUse" gradientTransform="translate(106.703 22.5485) scale(13.7366 48.3455)">
<stop stop-color="#38393A"/>
<stop offset="1" stop-color="#212324"/>
</radialGradient>
<radialGradient id="paint4_radial" cx="0" cy="0" r="1" gradientUnits="userSpaceOnUse" gradientTransform="translate(121.57 22.5485) scale(13.7366 48.3455)">
<stop stop-color="#38393A"/>
<stop offset="1" stop-color="#212324"/>
</radialGradient>
<radialGradient id="paint5_radial" cx="0" cy="0" r="1" gradientUnits="userSpaceOnUse" gradientTransform="translate(136.307 20.6498) scale(15.0324 58.2781)">
<stop stop-color="#38393A"/>
<stop offset="1" stop-color="#212324"/>
</radialGradient>
<radialGradient id="paint6_radial" cx="0" cy="0" r="1" gradientUnits="userSpaceOnUse" gradientTransform="translate(154.1 23.8046) scale(14.1095 25.3216)">
<stop stop-color="#38393A"/>
<stop offset="1" stop-color="#212324"/>
</radialGradient>
<radialGradient id="paint7_radial" cx="0" cy="0" r="1" gradientUnits="userSpaceOnUse" gradientTransform="translate(177.177 26.7311) scale(12.4044 18.2305)">
<stop stop-color="#38393A"/>
<stop offset="1" stop-color="#212324"/>
</radialGradient>
<radialGradient id="paint8_radial" cx="0" cy="0" r="1" gradientUnits="userSpaceOnUse" gradientTransform="translate(201.963 26.7831) scale(14.559 15.1951)">
<stop stop-color="#38393A"/>
<stop offset="1" stop-color="#212324"/>
</radialGradient>
<radialGradient id="paint9_radial" cx="0" cy="0" r="1" gradientUnits="userSpaceOnUse" gradientTransform="translate(234.739 22.7557) scale(17.177 21.257)">
<stop stop-color="#38393A"/>
<stop offset="1" stop-color="#212324"/>
</radialGradient>
<radialGradient id="paint10_radial" cx="0" cy="0" r="1" gradientUnits="userSpaceOnUse" gradientTransform="translate(267.865 26.9386) scale(14.8099 15.2426)">
<stop stop-color="#38393A"/>
<stop offset="1" stop-color="#212324"/>
</radialGradient>
<radialGradient id="paint11_radial" cx="0" cy="0" r="1" gradientUnits="userSpaceOnUse" gradientTransform="translate(6.35594 26.9384) scale(11.035 25.2173)">
<stop stop-color="#38393A"/>
<stop offset="1" stop-color="#212324"/>
</radialGradient>
<radialGradient id="paint12_radial" cx="0" cy="0" r="1" gradientUnits="userSpaceOnUse" gradientTransform="translate(28.3882 26.6537) scale(15.1054 14.1084)">
<stop stop-color="#38393A"/>
<stop offset="1" stop-color="#212324"/>
</radialGradient>
</defs>
</svg>
