<svg width="50" height="50" viewBox="0 0 50 50" fill="none" xmlns="http://www.w3.org/2000/svg">
<g filter="url(#filter0_d)">
<rect x="4" y="2" width="42" height="42" rx="10" fill="white"/>
</g>
<path d="M37.1993 14.9383C36.6392 15.1868 36.0581 15.3826 35.4616 15.5244C36.1189 14.9 36.613 14.1188 36.8917 13.2471C36.9713 12.9983 36.7009 12.7829 36.4762 12.9162C35.6464 13.4085 34.7526 13.7774 33.8197 14.0136C33.7657 14.0273 33.71 14.0342 33.6538 14.0342C33.4836 14.0342 33.3188 13.9712 33.1885 13.8566C32.1961 12.9818 30.9193 12.5 29.5938 12.5C29.0201 12.5 28.4412 12.5894 27.8727 12.7658C26.1111 13.3121 24.7518 14.7653 24.3251 16.5581C24.1652 17.2303 24.122 17.9036 24.1965 18.5585C24.2048 18.6338 24.1695 18.6863 24.1476 18.7109C24.1089 18.754 24.0543 18.7789 23.9975 18.7789C23.9913 18.7789 23.9846 18.7786 23.9782 18.778C20.122 18.4196 16.6446 16.562 14.1869 13.5468C14.0618 13.393 13.8212 13.4119 13.7213 13.5831C13.2401 14.4091 12.9858 15.3535 12.9858 16.3146C12.9858 17.7873 13.5777 19.1754 14.6055 20.1874C14.1733 20.0848 13.7548 19.9234 13.3661 19.7074C13.178 19.603 12.9467 19.7375 12.9441 19.9525C12.9174 22.1405 14.1985 24.0874 16.1174 24.9641C16.0787 24.9649 16.0401 24.9653 16.0014 24.9653C15.6972 24.9653 15.389 24.9362 15.086 24.878C14.8742 24.8378 14.6963 25.0385 14.762 25.2437C15.3851 27.1886 17.0593 28.622 19.0632 28.9472C17.4003 30.0635 15.4635 30.6523 13.448 30.6523L12.8198 30.652C12.6259 30.652 12.4621 30.7784 12.4131 30.9659C12.3645 31.1503 12.4539 31.3454 12.6191 31.4414C14.8902 32.7632 17.4809 33.4617 20.1119 33.4617C22.415 33.4617 24.5693 33.0048 26.515 32.1033C28.2989 31.277 29.8751 30.0959 31.2002 28.5926C32.4347 27.1923 33.3998 25.5758 34.0691 23.7878C34.707 22.0838 35.0442 20.2651 35.0442 18.5293V18.4464C35.0442 18.1677 35.1702 17.9054 35.3902 17.7267C36.2248 17.0489 36.9518 16.2513 37.5504 15.3558C37.7086 15.1195 37.4593 14.823 37.1993 14.9383Z" fill="#1DA1F2"/>
<defs>
<filter id="filter0_d" x="0" y="0" width="50" height="50" filterUnits="userSpaceOnUse" color-interpolation-filters="sRGB">
<feFlood flood-opacity="0" result="BackgroundImageFix"/>
<feColorMatrix in="SourceAlpha" type="matrix" values="0 0 0 0 0 0 0 0 0 0 0 0 0 0 0 0 0 0 127 0"/>
<feOffset dy="2"/>
<feGaussianBlur stdDeviation="2"/>
<feColorMatrix type="matrix" values="0 0 0 0 0 0 0 0 0 0 0 0 0 0 0 0 0 0 0.15 0"/>
<feBlend mode="normal" in2="BackgroundImageFix" result="effect1_dropShadow"/>
<feBlend mode="normal" in="SourceGraphic" in2="effect1_dropShadow" result="shape"/>
</filter>
</defs>
</svg>
