<svg width="50" height="50" viewBox="0 0 50 50" fill="none" xmlns="http://www.w3.org/2000/svg">
<path fill-rule="evenodd" clip-rule="evenodd" d="M41.1125 14.8483C41.1766 9.12361 35.8223 4.86183 30.2643 6.19965C27.8748 2.43378 23.719 0 19.1406 0C10.9211 0 4.70543 7.52945 6.16684 15.6342C2.4765 17.2729 0 20.9492 0 25C0 30.6541 4.64363 35.2539 10.3516 35.2539H19.1406V38.1836H14.7461C13.3934 38.1836 12.7647 39.8701 13.7867 40.7555L24.0406 49.6422C24.5914 50.1194 25.4089 50.1194 25.9594 49.6422L36.2133 40.7555C37.2356 39.8697 36.6062 38.1836 35.2539 38.1836H30.8594V35.2539H39.6484C45.3564 35.2539 50 30.6541 50 25C50 19.8383 46.13 15.5552 41.1125 14.8483ZM31.3271 41.1133L25 46.5965L18.6729 41.1133H20.6055C21.4146 41.1133 22.0703 40.4575 22.0703 39.6484V26.4648H27.9297V39.6484C27.9297 40.4575 28.5854 41.1133 29.3945 41.1133H31.3271ZM30.8594 32.3242H39.6484C43.7408 32.3242 47.0703 29.0386 47.0703 25C47.0703 20.9614 43.7408 17.6758 39.6484 17.6758C38.443 17.6765 37.899 16.745 38.0665 15.9199C38.9996 11.3159 34.4223 7.57675 30.13 9.31129C29.4262 9.59587 28.6221 9.29565 28.2768 8.62007C26.5091 5.16319 22.9229 2.92969 19.1406 2.92969C12.3119 2.92969 7.38373 9.58748 9.29375 16.1518C9.51996 16.9285 9.07364 17.741 8.29735 17.9672C5.13687 18.8885 2.92969 21.7804 2.92969 25C2.92969 29.0386 6.25916 32.3242 10.3516 32.3242H19.1406V25C19.1406 24.1909 19.7964 23.5352 20.6055 23.5352H29.3945C30.2036 23.5352 30.8594 24.1909 30.8594 25V32.3242Z" fill="#666C6F"/>
</svg>
