<svg width="50" height="50" viewBox="0 0 50 50" fill="none" xmlns="http://www.w3.org/2000/svg">
<path fill-rule="evenodd" clip-rule="evenodd" d="M42.9071 33.6074C45.0727 34.9659 46.8713 36.8663 48.1086 39.1031C49.346 41.3399 50 43.8735 50 46.4298V48.5352C50 49.3441 49.3441 50 48.5352 50H1.46484C0.655859 50 0 49.3441 0 48.5352V46.4298C0 43.8735 0.653906 41.3399 1.89131 39.1031C3.12871 36.8663 4.92734 34.9659 7.09277 33.6074L15.3315 28.439C13.7408 26.3773 12.793 23.7955 12.793 20.9961V12.207C12.793 5.47607 18.269 0 25 0C30.8828 0 35.8068 4.18301 36.9544 9.73086C39.5274 10.1274 41.5039 12.3567 41.5039 15.0391V21.7773C41.5039 24.739 39.0944 27.1484 36.1328 27.1484H35.5394C35.2762 27.5977 34.985 28.0286 34.6684 28.439L42.9071 33.6074ZM32.2545 12.5H34.2773V12.207C34.2773 7.0915 30.1155 2.92969 25 2.92969C19.8845 2.92969 15.7227 7.0915 15.7227 12.207V12.4701H17.7625C19.4826 12.4701 21.1522 11.7582 22.3431 10.5169L23.9431 8.84922C24.2193 8.56123 24.6012 8.39844 25.0001 8.39844H25.0027C25.4027 8.39922 25.785 8.56338 26.0608 8.85303L27.6579 10.5301C28.8503 11.7819 30.5257 12.5 32.2545 12.5ZM17.7624 15.3998C20.2765 15.3998 22.7165 14.3594 24.457 12.5451L24.9961 11.9833L25.5363 12.5507C27.2791 14.3803 29.7277 15.4297 32.2545 15.4297H34.2773V20.9961C34.2773 22.1287 34.0729 23.2145 33.6997 24.2188H27.0508C26.2418 24.2188 25.5859 24.8746 25.5859 25.6836C25.5859 26.4926 26.2418 27.1484 27.0508 27.1484H31.9374C30.2366 29.0641 27.7571 30.2734 25 30.2734C19.8845 30.2734 15.7227 26.1116 15.7227 20.9961V15.3998H17.7624ZM31.3107 31.4418C29.4681 32.5592 27.3079 33.2031 25 33.2031C22.6921 33.2031 20.5319 32.5592 18.6893 31.4418C19.0298 34.6232 21.7297 37.1094 25 37.1094C28.2703 37.1094 30.9702 34.6232 31.3107 31.4418ZM38.5742 15.0391V21.7773C38.5742 22.8923 37.8227 23.8344 36.7998 24.1254C37.065 23.1263 37.207 22.0775 37.207 20.9961V12.8474C38.016 13.2455 38.5742 14.0781 38.5742 15.0391ZM2.92969 47.0703H47.0703V46.4298C47.0703 42.2018 44.932 38.3361 41.3504 36.0893L34.2367 31.6266C33.799 36.3381 29.8239 40.0391 25 40.0391C20.1761 40.0391 16.201 36.3381 15.7634 31.6265L8.64971 36.0892C5.06797 38.336 2.92969 42.2017 2.92969 46.4298V47.0703Z" fill="#666C6F"/>
<path d="M40.625 41.2109H32.8125C32.0035 41.2109 31.3477 41.8668 31.3477 42.6758C31.3477 43.4848 32.0035 44.1406 32.8125 44.1406H40.625C41.434 44.1406 42.0898 43.4848 42.0898 42.6758C42.0898 41.8668 41.434 41.2109 40.625 41.2109Z" fill="#666C6F"/>
</svg>
