<svg width="50" height="50" viewBox="0 0 50 50" fill="none" xmlns="http://www.w3.org/2000/svg">
<path fill-rule="evenodd" clip-rule="evenodd" d="M4.39453 26.5625H45.6055C48.0286 26.5625 50 28.5339 50 30.957V45.6055C50 48.0286 48.0286 50 45.6055 50H4.39453C1.97139 50 0 48.0286 0 45.6055V30.957C0 28.5339 1.97139 26.5625 4.39453 26.5625ZM45.6055 47.0703C46.4132 47.0703 47.0703 46.4132 47.0703 45.6055V30.957C47.0703 30.1493 46.4132 29.4922 45.6055 29.4922H4.39453C3.58682 29.4922 2.92969 30.1493 2.92969 30.957V45.6055C2.92969 46.4132 3.58682 47.0703 4.39453 47.0703H45.6055Z" fill="#007DF1"/>
<path d="M16.4096 35.5649C16.0346 34.8481 15.1494 34.5712 14.4326 34.9461L12.6828 35.8616V33.8867C12.6828 33.0777 12.0269 32.4219 11.218 32.4219C10.409 32.4219 9.75312 33.0777 9.75312 33.8867V35.5342L8.38505 34.6161C7.71337 34.1653 6.80332 34.3446 6.35253 35.0163C5.90175 35.6881 6.08086 36.5981 6.75273 37.0488L8.35654 38.1251L6.64521 39.0205C5.92841 39.3956 5.65127 40.2807 6.02636 40.9976C6.28798 41.4976 6.79775 41.7836 7.32548 41.7836C7.55429 41.7836 7.78652 41.7298 8.00332 41.6164L9.75322 40.7009V42.6758C9.75322 43.4848 10.4091 44.1406 11.2181 44.1406C12.027 44.1406 12.6829 43.4848 12.6829 42.6758V41.0283L14.0509 41.9463C14.3014 42.1145 14.5851 42.1949 14.8657 42.1949C15.3375 42.1949 15.8008 41.9673 16.0834 41.5461C16.5342 40.8743 16.3551 39.9643 15.6832 39.5136L14.0794 38.4373L15.7907 37.5419C16.5076 37.1669 16.7847 36.2817 16.4096 35.5649Z" fill="#007DF1"/>
<path d="M30.0088 35.5649C29.6336 34.8481 28.7489 34.5712 28.0317 34.9461L26.2818 35.8616V33.8867C26.2818 33.0777 25.6261 32.4219 24.817 32.4219C24.008 32.4219 23.3521 33.0777 23.3521 33.8867V35.5342L21.9842 34.6162C21.3125 34.1654 20.4023 34.3447 19.9517 35.0164C19.5009 35.6882 19.68 36.5982 20.3519 37.0489L21.9557 38.1252L20.2443 39.0206C19.5275 39.3957 19.2504 40.2808 19.6255 40.9977C19.8871 41.4977 20.3969 41.7837 20.9246 41.7837C21.1534 41.7837 21.3856 41.7299 21.6024 41.6165L23.3522 40.701V42.6758C23.3522 43.4848 24.0081 44.1406 24.8171 44.1406C25.6262 44.1406 26.2819 43.4848 26.2819 42.6758V41.0283L27.65 41.9464C27.9006 42.1146 28.1843 42.195 28.4649 42.195C28.9367 42.195 29.4 41.9674 29.6827 41.5462C30.1334 40.8744 29.9543 39.9644 29.2825 39.5137L27.6787 38.4374L29.3901 37.542C30.1067 37.1669 30.3838 36.2817 30.0088 35.5649Z" fill="#007DF1"/>
<path d="M43.6559 35.5649C43.2808 34.8481 42.3961 34.5712 41.6789 34.9461L39.929 35.8616V33.8867C39.929 33.0777 39.2731 32.4219 38.4641 32.4219C37.6551 32.4219 36.9993 33.0777 36.9993 33.8867V35.5342L35.6313 34.6162C34.9593 34.1654 34.0495 34.3447 33.5987 35.0164C33.148 35.6882 33.3271 36.5982 33.9989 37.0489L35.6027 38.1252L33.8913 39.0206C33.1745 39.3957 32.8974 40.2808 33.2724 40.9977C33.5341 41.4977 34.0438 41.7837 34.5716 41.7837C34.8004 41.7837 35.0327 41.7299 35.2495 41.6165L36.9993 40.701V42.6758C36.9993 43.4848 37.6551 44.1406 38.4641 44.1406C39.2731 44.1406 39.929 43.4848 39.929 42.6758V41.0283L41.297 41.9464C41.5476 42.1146 41.8313 42.195 42.112 42.195C42.5837 42.195 43.047 41.9674 43.3297 41.5462C43.7804 40.8744 43.6013 39.9644 42.9295 39.5137L41.3257 38.4374L43.0372 37.542C43.7539 37.1669 44.0309 36.2817 43.6559 35.5649Z" fill="#007DF1"/>
<path fill-rule="evenodd" clip-rule="evenodd" d="M21.1479 23.6265H28.8521C31.6511 23.6265 33.9282 21.3493 33.9282 18.5504V9.17969C33.9282 8.3707 33.2724 7.71484 32.4634 7.71484H31.7614V6.76143C31.7613 3.0332 28.7282 0 25 0C21.2718 0 18.2386 3.0332 18.2386 6.76143V7.71484H17.5366C16.7276 7.71484 16.0718 8.3707 16.0718 9.17969V18.5503C16.0719 21.3492 18.349 23.6265 21.1479 23.6265ZM30.9985 18.5503C30.9985 19.7338 30.0356 20.6967 28.8521 20.6967H21.1479C19.9645 20.6967 19.0016 19.7338 19.0016 18.5503V10.6445H30.9985V18.5503ZM25 2.92969C22.8872 2.92969 21.1683 4.64863 21.1683 6.76143V7.71484H28.8316V6.76143C28.8316 4.64863 27.1128 2.92969 25 2.92969Z" fill="#007DF1"/>
<path d="M23.6786 17.9755C23.9533 18.2502 24.3259 18.4046 24.7144 18.4046C25.1029 18.4046 25.4754 18.2503 25.7502 17.9755L28.4319 15.2936C29.004 14.7215 29.0039 13.7941 28.4319 13.222C27.86 12.6499 26.9324 12.65 26.3604 13.222L24.7144 14.868L24.6234 14.7771C24.0515 14.2051 23.1239 14.2051 22.5519 14.7771C21.9798 15.3491 21.9798 16.2766 22.5519 16.8487L23.6786 17.9755Z" fill="#007DF1"/>
</svg>
