<svg width="50" height="50" viewBox="0 0 50 50" fill="none" xmlns="http://www.w3.org/2000/svg">
<path fill-rule="evenodd" clip-rule="evenodd" d="M25 0C31.6777 0 37.9559 2.60039 42.6777 7.32227C47.3995 12.0441 50 18.3223 50 25C50 31.6777 47.3995 37.9559 42.6777 42.6777C37.9559 47.3996 31.6777 50 25 50C18.3223 50 12.0441 47.3996 7.32227 42.6777C2.60049 37.9559 0 31.6777 0 25C0 18.3223 2.60049 12.0441 7.32227 7.32227C12.0441 2.60039 18.3223 0 25 0ZM2.92969 25C2.92969 37.1696 12.8304 47.0703 25 47.0703C37.1696 47.0703 47.0703 37.1696 47.0703 25C47.0703 12.8304 37.1696 2.92969 25 2.92969C12.8304 2.92969 2.92969 12.8304 2.92969 25Z" fill="#666C6F"/>
<path d="M26.569 23.5351H23.4309C21.6431 23.5351 20.1887 22.0807 20.1887 20.293C20.1887 18.5052 21.6432 17.0508 23.4309 17.0508H29.707C30.516 17.0508 31.1719 16.3949 31.1719 15.5859C31.1719 14.777 30.516 14.1211 29.707 14.1211H26.4648V10.8789C26.4648 10.0699 25.809 9.41406 25 9.41406C24.191 9.41406 23.5351 10.0699 23.5351 10.8789V14.1211H23.431C20.0278 14.1211 17.2592 16.8898 17.2592 20.293C17.2592 23.6961 20.0279 26.4647 23.431 26.4647H26.5691C28.3568 26.4647 29.8112 27.9192 29.8112 29.7069C29.8112 31.4946 28.3568 32.9491 26.5691 32.9491H20.293C19.4841 32.9491 18.8282 33.605 18.8282 34.414C18.8282 35.2229 19.4841 35.8788 20.293 35.8788H23.5351V39.1211C23.5351 39.9301 24.191 40.5859 25 40.5859C25.809 40.5859 26.4648 39.9301 26.4648 39.1211V35.8788H26.569C29.9721 35.8788 32.7408 33.1101 32.7408 29.7069C32.7408 26.3038 29.9721 23.5351 26.569 23.5351Z" fill="#666C6F"/>
</svg>
