<svg width="50" height="47" viewBox="0 0 50 47" fill="none" xmlns="http://www.w3.org/2000/svg">
<path fill-rule="evenodd" clip-rule="evenodd" d="M38.8486 23.9309L49.5517 34.6339C50.1497 35.2317 50.1497 36.201 49.5518 36.7986L40.7946 45.5561C40.5076 45.8433 40.1183 46.0045 39.7123 46.0045C39.3062 46.0045 38.9169 45.8432 38.6299 45.5561L36.1592 43.0854H15.3869C15.0788 43.0854 14.7921 42.9943 14.5518 42.8378C14.4633 42.7802 14.3802 42.713 14.3041 42.637L1.65477 29.9876C-0.551575 27.7812 -0.551575 24.1911 1.65468 21.9846C2.72352 20.9157 4.14452 20.3271 5.65614 20.3271C7.16776 20.3271 8.58876 20.9156 9.65761 21.9844L18.1332 30.4601C18.0356 30.0454 17.984 29.6133 17.984 29.1699C17.984 27.6583 18.5724 26.2373 19.6413 25.1685C20.7101 24.0997 22.1309 23.5111 23.6424 23.5111H23.6429L37.7632 23.4824C38.1691 23.4846 38.5607 23.6431 38.8486 23.9309ZM37.8755 40.4723L39.7122 42.309L46.3047 35.7165L37.1336 26.5454L23.6459 26.5729H23.6457C22.9488 26.5729 22.2968 26.8429 21.8062 27.3335C21.3156 27.8241 21.0455 28.4764 21.0455 29.1702C21.0455 30.5909 22.1998 31.755 23.6193 31.7677L28.5367 31.7676C29.382 31.7676 30.0674 32.4528 30.0674 33.2981C30.0674 34.1436 29.3821 34.8289 28.5368 34.8289L23.643 34.8291L23.6124 34.829L18.8066 34.8291C18.4007 34.8291 18.0113 34.6678 17.7243 34.3807L7.49315 24.1493C7.00253 23.6589 6.35028 23.3887 5.65634 23.3887C4.96249 23.3887 4.31024 23.6588 3.81971 24.1493C2.80702 25.1622 2.80692 26.8102 3.81971 27.8229L16.0205 40.0239H36.7931C37.1991 40.0239 37.5885 40.1853 37.8755 40.4723Z" fill="#666C6F"/>
<path fill-rule="evenodd" clip-rule="evenodd" d="M13.2846 0.0893555H38.0538C38.8991 0.0893555 39.5845 0.774707 39.5845 1.62002V16.7567C39.5845 17.6021 38.8991 18.2874 38.0538 18.2874H13.2846C12.4393 18.2874 11.7539 17.6021 11.7539 16.7567V1.62002C11.7539 0.774707 12.4393 0.0893555 13.2846 0.0893555ZM36.523 5.94893V3.15078H33.7249C34.1869 4.45332 35.2205 5.48691 36.523 5.94893ZM14.8153 3.15078H17.6135C17.1515 4.45332 16.1179 5.48691 14.8153 5.94893V3.15078ZM14.8153 12.4279V15.2261H17.6135C17.1515 13.9235 16.1179 12.8899 14.8153 12.4279ZM30.5543 15.2261H20.784C20.1738 12.2316 17.8098 9.86748 14.8153 9.25742V9.11943C17.8098 8.50928 20.1739 6.14522 20.784 3.15078H30.5543C31.1645 6.14522 33.5285 8.50937 36.5229 9.11943V9.25742C33.5286 9.86758 31.1645 12.2316 30.5543 15.2261ZM33.7249 15.2261H36.523V12.4279C35.2205 12.8899 34.1869 13.9235 33.7249 15.2261Z" fill="#666C6F"/>
<path d="M26.3568 7.65771H24.9809C24.1355 7.65771 23.4502 8.34307 23.4502 9.18838C23.4502 10.0337 24.1355 10.719 24.9809 10.719H26.3568C27.2021 10.719 27.8875 10.0337 27.8875 9.18838C27.8875 8.34307 27.2022 7.65771 26.3568 7.65771Z" fill="#666C6F"/>
</svg>
