<svg width="68" height="65" viewBox="0 0 68 65" fill="none" xmlns="http://www.w3.org/2000/svg">
<g filter="url(#filter0_d)">
<path d="M50.508 27.7005L34.0385 27.4657L17.9429 27.7005V33.1744C17.9429 34.6882 19.17 35.9152 20.6836 35.9152H47.7671C49.2808 35.9152 50.5079 34.6881 50.5079 33.1744V27.7005H50.508Z" fill="url(#paint0_linear)"/>
<path d="M50.508 27.7005H17.9429V17.7307C17.9429 17.7307 18.1848 1.46646 18.5861 0.989747C19.0889 0.39256 19.842 0.0131836 20.6836 0.0131836H47.7671C48.6064 0.0131836 49.3576 0.390447 49.8604 0.984698C50.2643 1.46212 50.5079 17.7388 50.5079 17.7388V27.7005H50.508Z" fill="url(#paint1_linear)"/>
<path d="M50.1556 15.8617H18.2951L17.9429 17.7253V27.7005H50.5079V17.7352L50.1556 15.8617Z" fill="url(#paint2_linear)"/>
<path d="M47.7671 0.0133057H37.8896L35.1047 0.717812V35.563L37.8899 35.9153H47.7671C49.2808 35.9153 50.5078 34.6882 50.5078 33.1745V27.7006V17.7154C50.5078 17.7154 50.2652 1.46459 49.8626 0.987638C49.36 0.391743 48.6078 0.0133057 47.7671 0.0133057V0.0133057Z" fill="url(#paint3_linear)"/>
<path d="M30.1169 0.0133057H37.8919V35.9153H30.1169L30.1169 0.0133057Z" fill="url(#paint4_linear)"/>
<path d="M17.9429 9.96948H50.508V17.7444H17.9429V9.96948Z" fill="url(#paint5_linear)"/>
<path d="M30.1169 27.7004H37.8919V35.9151H30.1169L30.1169 27.7004Z" fill="url(#paint6_linear)"/>
<path d="M50.5078 17.7444V9.96944H37.892V4.63069C37.5958 5.02474 37.3283 5.44486 37.0949 5.89023L35.4163 9.0955C35.121 8.98794 34.8101 8.91338 34.4882 8.87546L30.117 4.50928V9.96944H17.4641C17.76 10.3434 18.08 10.6951 18.4269 11.0163L24.7971 17.3912C24.6194 17.512 24.4381 17.6291 24.2551 17.7444H30.117V30.9062L35.1261 35.9152H37.892V17.7444H50.5078Z" fill="url(#paint7_linear)"/>
<path d="M50.508 9.96936V33.1739C50.508 34.6878 49.2815 35.9157 47.7677 35.9157H35.1267L24.3797 25.1687C24.1362 25.1497 23.9249 24.956 23.9146 24.6905L23.85 23.1443L21.0349 20.3541C20.5845 20.2118 20.561 19.5869 20.9983 19.408C22.1821 18.9209 23.2589 18.3738 24.2564 17.7444H37.8919V9.96936L50.508 9.96936Z" fill="url(#paint8_linear)"/>
<path d="M47.011 19.4075C42.9261 17.7308 40.095 15.3215 37.5807 11.4423L33.2874 16.9016C35.9415 20.9967 38.9484 23.4536 43.4109 25.1399C43.7326 25.2615 44.0805 25.0337 44.0948 24.69L44.2027 22.0973C44.2249 21.5651 44.5786 21.1039 45.087 20.9445L46.9736 20.3533C47.424 20.2122 47.4477 19.5868 47.011 19.4075Z" fill="url(#paint9_linear)"/>
<path d="M20.998 19.4075C25.083 17.7308 27.914 15.3215 30.4283 11.4423L34.7217 16.9016C32.0676 20.9967 29.0606 23.4536 24.5982 25.1399C24.2764 25.2615 23.9285 25.0337 23.9142 24.69L23.8063 22.0973C23.7841 21.5651 23.4304 21.1039 22.922 20.9445L21.0355 20.3533C20.5849 20.2122 20.5612 19.5868 20.998 19.4075Z" fill="url(#paint10_linear)"/>
<path d="M47.0111 19.4075C42.9261 17.7308 40.0951 15.3215 37.5808 11.4423L34.0046 15.9896L30.4284 11.4423C29.7068 12.5557 28.9587 13.5476 28.1626 14.4363V14.4364L32.9942 19.268C33.3387 18.8517 33.6752 18.4155 34.0046 17.955C36.4879 21.4268 39.3451 23.6034 43.4108 25.1399C43.7325 25.2615 44.0804 25.0337 44.0948 24.69L44.2028 22.0973C44.225 21.5651 44.5787 21.1039 45.0871 20.9445L46.9736 20.3533C47.424 20.2122 47.4478 19.5868 47.0111 19.4075Z" fill="url(#paint11_linear)"/>
<path d="M34.3123 11.2036L37.0948 5.89023C38.6878 2.84829 41.8433 0.947536 45.2771 0.961626L51.546 0.987223C53.6452 0.995794 54.9043 3.32266 53.763 5.08451L51.0523 9.26952C49.732 11.3078 47.6589 12.7409 45.2857 13.256L37.211 15.0085C35.0218 15.4835 33.273 13.188 34.3123 11.2036Z" fill="url(#paint12_linear)"/>
<path d="M48.1016 6.59062C42.5484 6.56796 37.5391 8.90762 34.0176 12.6617C34.1523 14.1401 35.5542 15.3679 37.211 15.0083L45.2857 13.2557C47.6589 12.7406 49.7319 11.3075 51.0523 9.26927L52.4512 7.1096C51.0537 6.77966 49.5991 6.59672 48.1016 6.59062Z" fill="url(#paint13_linear)"/>
<path d="M33.6966 11.2036L30.914 5.89023C29.321 2.84829 26.1655 0.947536 22.7317 0.961626L16.4628 0.987223C14.3635 0.995677 13.1045 3.32243 14.2457 5.0844L16.9564 9.2694C18.2767 11.3077 20.3498 12.7407 22.7231 13.2558L30.7978 15.0084C32.987 15.4835 34.7358 13.188 33.6966 11.2036Z" fill="url(#paint14_linear)"/>
<path d="M19.9072 6.59062C25.4604 6.56796 30.4698 8.90762 33.9913 12.6617C33.8566 14.1401 32.4546 15.3679 30.7979 15.0083L22.7232 13.2557C20.3499 12.7406 18.2769 11.3075 16.9565 9.26927L15.5576 7.1096C16.9551 6.77966 18.4098 6.59672 19.9072 6.59062Z" fill="url(#paint15_linear)"/>
<path d="M38.1303 12.9132C38.1628 15.1913 36.342 17.0645 34.0634 17.097C31.7848 17.1295 29.9113 15.3091 29.8788 13.0308C29.8463 10.7527 31.6671 8.87951 33.9457 8.84699C36.2243 8.81446 38.0977 10.635 38.1303 12.9132Z" fill="url(#paint16_linear)"/>
<path d="M37.4477 12.9229C37.4748 14.8242 35.9552 16.3875 34.0535 16.4147C32.1518 16.4418 30.5883 14.9225 30.5611 13.0212C30.534 11.1198 32.0536 9.55654 33.9553 9.52941C35.857 9.50217 37.4206 11.0216 37.4477 12.9229Z" fill="url(#paint17_linear)"/>
<path d="M35.7973 9.25574C36.0835 9.80701 36.2493 10.4314 36.2588 11.0947C36.2913 13.3729 34.4705 15.246 32.1919 15.2786C31.5285 15.2881 30.8995 15.1401 30.3401 14.8698C31.0367 16.2119 32.4481 17.1199 34.0632 17.0969C36.3418 17.0644 38.1626 15.1912 38.13 12.9131C38.107 11.2983 37.1589 9.91375 35.7973 9.25574Z" fill="url(#paint18_linear)"/>
<path d="M44.6616 38.8616C44.1916 39.054 43.8259 39.4069 43.6778 39.872L42.4731 43.6494C42.0298 45.0378 41.1661 46.2626 39.9846 47.219C42.2677 47.9143 44.6487 47.078 45.4811 45.2771C45.6928 44.8191 45.8783 44.3487 46.0362 43.8673L47.0971 40.6316C47.2893 40.0457 47.0893 39.4202 46.6327 38.955C46.5137 38.897 46.3893 38.8474 46.2577 38.8081C45.6968 38.6381 45.1274 38.6712 44.6616 38.8616Z" fill="url(#paint19_linear)"/>
<path d="M51.8497 38.8787L49.0915 43.393C48.6809 44.0647 48.24 44.7133 47.7707 45.337C45.9257 47.7895 42.515 48.433 39.8923 46.8392C41.8189 45.7205 43.4548 44.1265 44.6231 42.1863L47.7997 36.9078C48.1906 36.2579 48.8115 35.8275 49.4966 35.6602C50.1754 35.4946 50.9189 35.5871 51.5637 35.9776C51.7151 36.0684 51.8532 36.1724 51.9804 36.2876C52.3639 37.088 52.3492 38.0611 51.8497 38.8787Z" fill="url(#paint20_linear)"/>
<path d="M56.8878 39.8113L52.1688 44.6732C51.4664 45.3965 50.7327 46.0823 49.9704 46.7293C46.9738 49.2728 42.5313 49.1147 39.7043 46.3839C42.4268 45.5297 44.92 43.9998 46.9267 41.9054L52.3841 36.2069C53.0557 35.5052 53.9528 35.1426 54.8558 35.1269C55.7505 35.1114 56.6532 35.4366 57.3486 36.1063C57.5123 36.2623 57.6553 36.4313 57.7819 36.611C58.0352 37.7191 57.7425 38.9307 56.8878 39.8113Z" fill="url(#paint21_linear)"/>
<path d="M62.87 36.5017C61.5455 35.2279 59.4327 35.2713 58.1616 36.5982L52.9875 41.9998C50.9739 44.1019 48.4466 45.6016 45.6887 46.3828C45.6292 44.7099 44.236 43.3858 42.5478 43.415L40.5057 43.4503C36.4591 43.5203 32.4839 42.3854 29.0898 40.1909C25.1886 37.6685 20.2607 37.3134 16.0346 39.2502L5.55005 44.0552L5.61181 47.6216L5.7931 58.0966L7.82795 57.6143C14.8757 55.9441 22.0842 55.0384 29.3276 54.9131L37.7222 54.7679C45.5626 54.6323 53.0284 51.4012 58.4769 45.7857L62.9509 41.1746C64.2246 39.8617 64.1883 37.7696 62.87 36.5017Z" fill="url(#paint22_linear)"/>
<path d="M5.7614 56.2701L5.55005 44.0556L16.0344 39.2499C17.7682 38.4561 19.6193 38.0464 21.4694 38.0145C24.1303 37.9685 26.7887 38.7024 29.0898 40.1903C32.4839 42.3848 36.4596 43.5207 40.5061 43.4507L42.5474 43.4153C43.1099 43.4056 43.6402 43.5454 44.0979 43.7996C44.4792 44.0092 44.8096 44.2979 45.0689 44.6424C45.4387 45.1291 45.6652 45.73 45.6889 46.383C48.4465 45.6012 50.9742 44.1018 52.9873 42.0001L58.1614 36.5983C59.246 35.4653 60.9442 35.2683 62.2417 36.0284C62.7728 37.2214 62.5606 38.6659 61.5941 39.6614L57.1205 44.2735C51.6719 49.8888 44.2058 53.1194 36.3657 53.2551L27.9706 53.4003C20.7278 53.5256 13.5184 54.4317 6.47131 56.1013L5.7614 56.2701Z" fill="url(#paint23_linear)"/>
<path d="M5.79299 58.0965L7.82795 57.6143H7.82807C14.8758 55.9441 22.0843 55.0383 29.3276 54.9131L31.1232 54.8819L16.0346 39.25L5.55005 44.0551L5.61181 47.6215L5.78712 57.7519L5.79299 58.0965Z" fill="url(#paint24_linear)"/>
<path d="M45.6887 46.3828C45.6292 44.7099 44.236 43.3857 42.5478 43.415L40.5056 43.4503C36.4591 43.5203 32.4839 42.3853 29.0898 40.1909C25.1886 37.6684 20.2607 37.3134 16.0346 39.2502L15.6357 39.433L23.8212 47.3399L27.9439 48.3119C32.0235 49.2737 36.2071 49.7235 40.3979 49.6509L42.6022 49.6128C44.3072 49.5833 45.7196 48.1763 45.69 46.4712C45.6899 46.4521 45.6887 46.3828 45.6887 46.3828Z" fill="url(#paint25_linear)"/>
<path d="M14.1515 36.7268H5.94996C4.873 36.7268 4 37.5998 4 38.6766V56.7457C4 57.8227 4.873 58.6957 5.94996 58.6957H14.1515C15.2284 58.6957 16.1014 57.8227 16.1014 56.7457V38.6766C16.1013 37.5998 15.2283 36.7268 14.1515 36.7268Z" fill="url(#paint26_linear)"/>
</g>
<defs>
<filter id="filter0_d" x="0" y="-1.98682" width="67.883" height="66.6825" filterUnits="userSpaceOnUse" color-interpolation-filters="sRGB">
<feFlood flood-opacity="0" result="BackgroundImageFix"/>
<feColorMatrix in="SourceAlpha" type="matrix" values="0 0 0 0 0 0 0 0 0 0 0 0 0 0 0 0 0 0 127 0"/>
<feOffset dy="2"/>
<feGaussianBlur stdDeviation="2"/>
<feColorMatrix type="matrix" values="0 0 0 0 0 0 0 0 0 0 0 0 0 0 0 0 0 0 0.2 0"/>
<feBlend mode="normal" in2="BackgroundImageFix" result="effect1_dropShadow"/>
<feBlend mode="normal" in="SourceGraphic" in2="effect1_dropShadow" result="shape"/>
</filter>
<linearGradient id="paint0_linear" x1="9.31128" y1="26.4267" x2="9.64967" y2="38.4128" gradientUnits="userSpaceOnUse">
<stop stop-color="#FF7044"/>
<stop offset="1" stop-color="#F82814"/>
</linearGradient>
<linearGradient id="paint1_linear" x1="14.6697" y1="11.437" x2="25.1845" y2="37.0061" gradientUnits="userSpaceOnUse">
<stop stop-color="#FF7044"/>
<stop offset="1" stop-color="#F82814"/>
</linearGradient>
<linearGradient id="paint2_linear" x1="40.8958" y1="21.7785" x2="40.8958" y2="16.9286" gradientUnits="userSpaceOnUse">
<stop stop-color="#F82814" stop-opacity="0.01"/>
<stop offset="1" stop-color="#C0272D"/>
</linearGradient>
<linearGradient id="paint3_linear" x1="42.9531" y1="10.6124" x2="36.6447" y2="10.6124" gradientUnits="userSpaceOnUse">
<stop stop-color="#F82814" stop-opacity="0.01"/>
<stop offset="1" stop-color="#C0272D"/>
</linearGradient>
<linearGradient id="paint4_linear" x1="28.6649" y1="46.3162" x2="41.2936" y2="46.4057" gradientUnits="userSpaceOnUse">
<stop stop-color="#FFD945"/>
<stop offset="0.3043" stop-color="#FFCD3E"/>
<stop offset="0.8558" stop-color="#FFAD2B"/>
<stop offset="1" stop-color="#FFA325"/>
</linearGradient>
<linearGradient id="paint5_linear" x1="7.03981" y1="9.50948" x2="7.20158" y2="22.0175" gradientUnits="userSpaceOnUse">
<stop stop-color="#FFD945"/>
<stop offset="0.3043" stop-color="#FFCD3E"/>
<stop offset="0.8558" stop-color="#FFAD2B"/>
<stop offset="1" stop-color="#FFA325"/>
</linearGradient>
<linearGradient id="paint6_linear" x1="30.5892" y1="32.4856" x2="34.7942" y2="36.95" gradientUnits="userSpaceOnUse">
<stop stop-color="#FFD945"/>
<stop offset="0.3043" stop-color="#FFCD3E"/>
<stop offset="0.8558" stop-color="#FFAD2B"/>
<stop offset="1" stop-color="#FFA325"/>
</linearGradient>
<linearGradient id="paint7_linear" x1="40.5089" y1="9.18084" x2="31.9356" y2="-2.3909" gradientUnits="userSpaceOnUse">
<stop stop-color="#F35227" stop-opacity="0.01"/>
<stop offset="1" stop-color="#F35227"/>
</linearGradient>
<linearGradient id="paint8_linear" x1="49.0595" y1="18.9202" x2="40.5026" y2="6.7487" gradientUnits="userSpaceOnUse">
<stop stop-color="#F82814" stop-opacity="0.01"/>
<stop offset="1" stop-color="#C0272D"/>
</linearGradient>
<linearGradient id="paint9_linear" x1="37.6715" y1="15.4492" x2="35.9824" y2="21.7762" gradientUnits="userSpaceOnUse">
<stop stop-color="#FFD945"/>
<stop offset="0.3043" stop-color="#FFCD3E"/>
<stop offset="0.8558" stop-color="#FFAD2B"/>
<stop offset="1" stop-color="#FFA325"/>
</linearGradient>
<linearGradient id="paint10_linear" x1="23.2701" y1="18.7681" x2="27.4072" y2="24.2357" gradientUnits="userSpaceOnUse">
<stop stop-color="#FFD945"/>
<stop offset="0.3043" stop-color="#FFCD3E"/>
<stop offset="0.8558" stop-color="#FFAD2B"/>
<stop offset="1" stop-color="#FFA325"/>
</linearGradient>
<linearGradient id="paint11_linear" x1="41.6055" y1="17.9518" x2="41.5302" y2="12.4497" gradientUnits="userSpaceOnUse">
<stop stop-color="#F35227" stop-opacity="0.01"/>
<stop offset="1" stop-color="#F35227"/>
</linearGradient>
<linearGradient id="paint12_linear" x1="35.0477" y1="4.46047" x2="37.1405" y2="14.56" gradientUnits="userSpaceOnUse">
<stop stop-color="#FFD945"/>
<stop offset="0.3043" stop-color="#FFCD3E"/>
<stop offset="0.8558" stop-color="#FFAD2B"/>
<stop offset="1" stop-color="#FFA325"/>
</linearGradient>
<linearGradient id="paint13_linear" x1="49.1857" y1="9.32652" x2="46.2893" y2="2.67107" gradientUnits="userSpaceOnUse">
<stop stop-color="#F35227" stop-opacity="0.01"/>
<stop offset="1" stop-color="#F35227"/>
</linearGradient>
<linearGradient id="paint14_linear" x1="16.7698" y1="2.57589" x2="16.4111" y2="13.0775" gradientUnits="userSpaceOnUse">
<stop stop-color="#FFD945"/>
<stop offset="0.3043" stop-color="#FFCD3E"/>
<stop offset="0.8558" stop-color="#FFAD2B"/>
<stop offset="1" stop-color="#FFA325"/>
</linearGradient>
<linearGradient id="paint15_linear" x1="27.9042" y1="13.2644" x2="30.8006" y2="6.60895" gradientUnits="userSpaceOnUse">
<stop stop-color="#F35227" stop-opacity="0.01"/>
<stop offset="1" stop-color="#F35227"/>
</linearGradient>
<linearGradient id="paint16_linear" x1="29.7915" y1="12.881" x2="33.6536" y2="18.2993" gradientUnits="userSpaceOnUse">
<stop stop-color="#FFD945"/>
<stop offset="0.3043" stop-color="#FFCD3E"/>
<stop offset="0.8558" stop-color="#FFAD2B"/>
<stop offset="1" stop-color="#FFA325"/>
</linearGradient>
<linearGradient id="paint17_linear" x1="37.5468" y1="11.6434" x2="33.5122" y2="5.29988" gradientUnits="userSpaceOnUse">
<stop stop-color="#FFD945" stop-opacity="0.01"/>
<stop offset="1" stop-color="#FBED21"/>
</linearGradient>
<linearGradient id="paint18_linear" x1="39.4059" y1="17.2601" x2="44.9861" y2="6.66397" gradientUnits="userSpaceOnUse">
<stop stop-color="#F35227" stop-opacity="0.01"/>
<stop offset="1" stop-color="#F35227"/>
</linearGradient>
<linearGradient id="paint19_linear" x1="40.8186" y1="44.2219" x2="44.6756" y2="45.4703" gradientUnits="userSpaceOnUse">
<stop stop-color="#FFDECF"/>
<stop offset="1" stop-color="#FAA68E"/>
</linearGradient>
<linearGradient id="paint20_linear" x1="42.7957" y1="41.0648" x2="45.7006" y2="44.2918" gradientUnits="userSpaceOnUse">
<stop stop-color="#FFDECF"/>
<stop offset="1" stop-color="#FAA68E"/>
</linearGradient>
<linearGradient id="paint21_linear" x1="44.1734" y1="39.7872" x2="45.823" y2="44.9573" gradientUnits="userSpaceOnUse">
<stop stop-color="#FFDECF"/>
<stop offset="1" stop-color="#FAA68E"/>
</linearGradient>
<linearGradient id="paint22_linear" x1="61.1023" y1="50.1349" x2="60.6922" y2="29.8737" gradientUnits="userSpaceOnUse">
<stop stop-color="#FFDECF"/>
<stop offset="1" stop-color="#FAA68E"/>
</linearGradient>
<linearGradient id="paint23_linear" x1="5.69238" y1="47.7561" x2="6.78378" y2="68.5361" gradientUnits="userSpaceOnUse">
<stop stop-color="#FFDECF" stop-opacity="0.01"/>
<stop offset="1" stop-color="white"/>
</linearGradient>
<linearGradient id="paint24_linear" x1="26.0425" y1="49.8633" x2="17.0882" y2="42.6137" gradientUnits="userSpaceOnUse">
<stop stop-color="#FAA68E" stop-opacity="0.01"/>
<stop offset="1" stop-color="#FAA68E"/>
</linearGradient>
<linearGradient id="paint25_linear" x1="20.1294" y1="45.3526" x2="20.6391" y2="54.2749" gradientUnits="userSpaceOnUse">
<stop stop-color="#FFDECF" stop-opacity="0.01"/>
<stop offset="1" stop-color="white"/>
</linearGradient>
<linearGradient id="paint26_linear" x1="4" y1="36.7268" x2="4" y2="58.6957" gradientUnits="userSpaceOnUse">
<stop stop-color="#007FF5"/>
<stop offset="1" stop-color="#0068C9"/>
</linearGradient>
</defs>
</svg>
