<svg width="68" height="66" viewBox="0 0 68 66" fill="none" xmlns="http://www.w3.org/2000/svg">
<g filter="url(#filter0_d)">
<path d="M52.021 27.2984C52.021 17.3017 43.9076 9.2 33.9065 9.21891C23.9301 9.23781 15.8041 17.4298 15.8622 27.406C15.8957 33.1573 18.6148 38.2723 22.8286 41.5604C23.9279 42.4182 24.5717 43.7335 24.5717 45.1277C24.5717 48.1328 27.0078 50.5688 30.0128 50.5688H37.8702C40.8753 50.5688 43.3113 48.1328 43.3113 45.1277V45.1274C43.3113 43.7343 43.9534 42.4191 45.0518 41.5623C49.2934 38.2538 52.021 33.0947 52.021 27.2984Z" fill="url(#paint0_linear)"/>
<path d="M18.8593 37.2694C19.9431 38.9056 21.285 40.356 22.8286 41.5604C23.9278 42.4182 24.5716 43.7335 24.5716 45.1277C24.5716 48.1328 27.0077 50.5688 30.0128 50.5688H37.8701C40.8752 50.5688 43.3113 48.1328 43.3113 45.1277V45.1274C43.3113 43.7343 43.9533 42.4191 45.0517 41.5624C46.5964 40.3576 47.9389 38.9064 49.0234 37.2694L18.8593 37.2694Z" fill="url(#paint1_linear)"/>
<circle cx="33.9414" cy="27.5479" r="16.5981" fill="url(#paint2_linear)"/>
<path d="M37.54 9.57727V50.5689H37.8701C40.8752 50.5689 43.3112 48.1328 43.3112 45.1277V45.1274C43.3112 43.7343 43.9533 42.4191 45.0517 41.5623C49.2933 38.2537 52.021 33.0946 52.021 27.2984C52.021 18.5456 45.801 11.2457 37.54 9.57727L37.54 9.57727Z" fill="url(#paint3_linear)"/>
<path d="M26.7913 13.9636L33.1689 0.488927C33.4775 -0.162976 34.4051 -0.162976 34.7137 0.488927L41.0914 13.9634C41.0916 17.9242 26.7913 17.9242 26.7913 13.9636H26.7913Z" fill="url(#paint4_linear)"/>
<path d="M41.0926 48.491L41.0913 13.9633C40.5562 14.1069 39.9586 14.1095 39.3648 13.9411C38.5557 13.7088 37.8993 12.7366 37.5065 12.0019C37.4204 11.8427 37.2442 11.7945 37.1007 11.8466C37.0133 11.8766 36.9364 11.9431 36.8971 12.0449C36.8984 12.0462 36.8971 12.0475 36.8971 12.0475C36.8566 12.1506 36.8111 12.2511 36.7614 12.3476C36.7366 12.3933 36.7119 12.439 36.6871 12.4846C36.6858 12.4885 36.6845 12.4898 36.6819 12.4925C36.5984 12.636 36.5058 12.7704 36.4014 12.8983C36.3675 12.9401 36.331 12.9818 36.2957 13.0223C36.236 13.0885 36.1735 13.1523 36.1084 13.2132C35.653 13.6401 35.0707 13.9342 34.4244 14.0323C34.2665 14.0571 34.106 14.0688 33.9416 14.0688C33.7772 14.0688 33.6167 14.0571 33.4588 14.0323C32.7202 13.9201 32.065 13.5521 31.5875 13.0223C31.5523 12.9818 31.5158 12.9401 31.4818 12.8983C31.3775 12.7704 31.2835 12.6347 31.2013 12.4925C31.1987 12.4899 31.1974 12.4886 31.1962 12.4846C31.1714 12.439 31.1466 12.3933 31.1217 12.3476C31.0956 12.2981 31.0722 12.2485 31.05 12.1976C31.0278 12.1493 31.0069 12.0996 30.9873 12.0488C30.986 12.0475 30.986 12.0475 30.986 12.0449C30.9469 11.9431 30.8699 11.8765 30.7824 11.8466C30.6388 11.7943 30.4626 11.8427 30.3766 12.0019C29.9838 12.7366 29.3287 13.7075 28.5196 13.9398C27.9245 14.1095 27.3282 14.1082 26.7918 13.9633L26.7905 48.4911C26.7918 49.5703 27.6661 50.4446 28.744 50.4446H30.7824H37.101H39.1393C40.2169 50.4445 41.0912 49.5702 41.0926 48.491Z" fill="url(#paint5_linear)"/>
<path d="M37.1007 50.4447V11.8467C37.0132 11.8767 36.9363 11.9432 36.8971 12.045C36.8984 12.0463 36.8971 12.0476 36.8971 12.0476C36.8566 12.1507 36.5056 12.7731 36.4013 12.8984C36.3673 12.9428 36.3321 12.9832 36.2956 13.0224C35.8179 13.5522 35.1629 13.9202 34.4243 14.0324C34.2664 14.0572 34.1059 14.0689 33.9415 14.0689C33.7771 14.0689 33.6166 14.0572 33.4587 14.0324C32.7201 13.9202 32.0649 13.5522 31.5874 13.0224C31.5508 12.9833 31.5156 12.9428 31.4817 12.8984C31.3773 12.7731 31.2834 12.6374 31.2012 12.4926C31.1986 12.49 31.1973 12.4887 31.196 12.4847C31.1699 12.4403 31.0069 12.0997 30.9872 12.0489C30.986 12.0476 30.986 12.0476 30.986 12.045C30.9469 11.9432 30.8698 11.8766 30.7823 11.8467V50.4447H37.1007Z" fill="url(#paint6_linear)"/>
<path d="M33.9415 3.72391C33.1902 3.72391 32.4689 3.60543 31.7958 3.39032L33.1691 0.489049C33.4777 -0.162854 34.4053 -0.162854 34.7138 0.489049L36.087 3.39044C35.4139 3.60543 34.6927 3.72391 33.9415 3.72391Z" fill="url(#paint7_linear)"/>
<path d="M33.9415 59.883C28.7666 59.883 24.5717 55.6881 24.5717 50.5132V48.099H43.3113V50.5132C43.3113 55.6881 39.1163 59.883 33.9415 59.883Z" fill="url(#paint8_linear)"/>
<path d="M23.8969 47.2186V49.2977C23.8969 49.7733 24.3895 50.1785 25.0633 50.2605C27.6783 50.5785 30.7093 50.7603 33.9413 50.7603C37.1734 50.7603 40.2044 50.5785 42.8194 50.2605C43.4932 50.1785 43.9858 49.7733 43.9858 49.2977V47.2186C43.9858 46.6168 43.2114 46.1577 42.3573 46.2547C39.8498 46.5392 36.9852 46.7007 33.9412 46.7007C30.8973 46.7007 28.0327 46.5392 25.5252 46.2547C24.6715 46.1578 23.8969 46.6168 23.8969 47.2186H23.8969Z" fill="url(#paint9_linear)"/>
<path d="M23.8969 52.2736V54.3527C23.8969 54.8284 24.3895 55.2336 25.0633 55.3156C27.6783 55.6335 30.7093 55.8154 33.9413 55.8154C37.1734 55.8154 40.2044 55.6335 42.8194 55.3156C43.4932 55.2336 43.9858 54.8284 43.9858 54.3527V52.2736C43.9858 51.6718 43.2114 51.2127 42.3573 51.3097C39.8498 51.5942 36.9852 51.7558 33.9412 51.7558C30.8973 51.7558 28.0327 51.5942 25.5252 51.3097C24.6715 51.2127 23.8969 51.6717 23.8969 52.2736H23.8969Z" fill="url(#paint10_linear)"/>
<path d="M53.3352 27.5479C53.3352 26.3114 54.3376 25.309 55.5741 25.309H61.644C62.8806 25.309 63.883 26.3114 63.883 27.5479C63.883 28.7844 62.8806 29.7868 61.644 29.7868H55.5741C54.3376 29.7868 53.3352 28.7844 53.3352 27.5479Z" fill="url(#paint11_linear)"/>
<path d="M4 27.5479C4 26.3114 5.0024 25.309 6.23892 25.309H12.3088C13.5454 25.309 14.5478 26.3114 14.5478 27.5479C14.5478 28.7844 13.5454 29.7868 12.3088 29.7868H6.23892C5.0024 29.7868 4 28.7844 4 27.5479Z" fill="url(#paint12_linear)"/>
<path d="M47.655 13.8344C46.7805 12.96 46.7805 11.5424 47.655 10.668L51.947 6.3759C52.8215 5.50149 54.239 5.50149 55.1134 6.3759C55.9879 7.25031 55.9879 8.66789 55.1134 9.5423L50.8214 13.8344C49.9469 14.7088 48.5292 14.7088 47.655 13.8344Z" fill="url(#paint13_linear)"/>
<path d="M12.7697 48.7198C11.8953 47.8454 11.8953 46.4278 12.7697 45.5534L17.0618 41.2613C17.9362 40.3869 19.3538 40.3869 20.2282 41.2613C21.1026 42.1357 21.1026 43.5533 20.2282 44.4277L15.9361 48.7198C15.0617 49.5942 13.644 49.5942 12.7697 48.7198Z" fill="url(#paint14_linear)"/>
<path d="M47.655 41.2613C48.5294 40.3869 49.9469 40.3869 50.8214 41.2613L55.1134 45.5534C55.9879 46.4278 55.9879 47.8454 55.1134 48.7198C54.239 49.5942 52.8215 49.5942 51.947 48.7198L47.655 44.4277C46.7805 43.5534 46.7805 42.1357 47.655 41.2613Z" fill="url(#paint15_linear)"/>
<path d="M12.7697 6.37602C13.6441 5.50161 15.0617 5.50161 15.9361 6.37602L20.2282 10.6681C21.1026 11.5425 21.1026 12.9601 20.2282 13.8345C19.3538 14.7089 17.9362 14.7089 17.0618 13.8345L12.7697 9.54231C11.8953 8.66802 11.8953 7.25031 12.7697 6.37602Z" fill="url(#paint16_linear)"/>
</g>
<defs>
<filter id="filter0_d" x="0" y="-2" width="67.883" height="67.883" filterUnits="userSpaceOnUse" color-interpolation-filters="sRGB">
<feFlood flood-opacity="0" result="BackgroundImageFix"/>
<feColorMatrix in="SourceAlpha" type="matrix" values="0 0 0 0 0 0 0 0 0 0 0 0 0 0 0 0 0 0 127 0"/>
<feOffset dy="2"/>
<feGaussianBlur stdDeviation="2"/>
<feColorMatrix type="matrix" values="0 0 0 0 0 0 0 0 0 0 0 0 0 0 0 0 0 0 0.2 0"/>
<feBlend mode="normal" in2="BackgroundImageFix" result="effect1_dropShadow"/>
<feBlend mode="normal" in="SourceGraphic" in2="effect1_dropShadow" result="shape"/>
</filter>
<linearGradient id="paint0_linear" x1="18.4368" y1="31.3817" x2="37.9106" y2="46.2732" gradientUnits="userSpaceOnUse">
<stop stop-color="#FFEBB4"/>
<stop offset="1" stop-color="#FFCE47"/>
</linearGradient>
<linearGradient id="paint1_linear" x1="24.2312" y1="40.2333" x2="24.2312" y2="48.7957" gradientUnits="userSpaceOnUse">
<stop stop-color="#FF9356" stop-opacity="0.01"/>
<stop offset="1" stop-color="#FF755C"/>
</linearGradient>
<linearGradient id="paint2_linear" x1="44.0177" y1="26.848" x2="35.715" y2="10.1222" gradientUnits="userSpaceOnUse">
<stop stop-color="#FFEBB4" stop-opacity="0.01"/>
<stop offset="1" stop-color="#FFF5D9"/>
</linearGradient>
<linearGradient id="paint3_linear" x1="46.0529" y1="19.9905" x2="38.9293" y2="19.9905" gradientUnits="userSpaceOnUse">
<stop stop-color="#FF9356" stop-opacity="0.01"/>
<stop offset="1" stop-color="#FF755C"/>
</linearGradient>
<linearGradient id="paint4_linear" x1="26.791" y1="16.9384" x2="41.0914" y2="16.9384" gradientUnits="userSpaceOnUse">
<stop stop-color="#FFE0EA"/>
<stop offset="1" stop-color="#FFC0D5"/>
</linearGradient>
<linearGradient id="paint5_linear" x1="16.9791" y1="52.6464" x2="44.6765" y2="56.4452" gradientUnits="userSpaceOnUse">
<stop stop-color="#FFCE47"/>
<stop offset="1" stop-color="#FF9356"/>
</linearGradient>
<linearGradient id="paint6_linear" x1="39.9143" y1="-13.0226" x2="25.4803" y2="-13.0226" gradientUnits="userSpaceOnUse">
<stop stop-color="#FFCE47"/>
<stop offset="1" stop-color="#FF9356"/>
</linearGradient>
<linearGradient id="paint7_linear" x1="33.5096" y1="3.44925" x2="37.1584" y2="3.44925" gradientUnits="userSpaceOnUse">
<stop stop-color="#2F73A0"/>
<stop offset="1" stop-color="#174461"/>
</linearGradient>
<linearGradient id="paint8_linear" x1="21.6417" y1="49.0097" x2="25.3303" y2="61.7165" gradientUnits="userSpaceOnUse">
<stop stop-color="#45A2E0"/>
<stop offset="1" stop-color="#2F73A0"/>
</linearGradient>
<linearGradient id="paint9_linear" x1="26.5985" y1="47.0761" x2="26.5985" y2="50.3794" gradientUnits="userSpaceOnUse">
<stop stop-color="#C7E9FF"/>
<stop offset="1" stop-color="#7ACBFF"/>
</linearGradient>
<linearGradient id="paint10_linear" x1="26.5985" y1="52.1311" x2="26.5985" y2="55.4344" gradientUnits="userSpaceOnUse">
<stop stop-color="#C7E9FF"/>
<stop offset="1" stop-color="#7ACBFF"/>
</linearGradient>
<linearGradient id="paint11_linear" x1="61.2036" y1="27.9413" x2="61.2036" y2="25.7385" gradientUnits="userSpaceOnUse">
<stop stop-color="#6FA953"/>
<stop offset="1" stop-color="#43765A"/>
</linearGradient>
<linearGradient id="paint12_linear" x1="11.8684" y1="27.9413" x2="11.8684" y2="25.7385" gradientUnits="userSpaceOnUse">
<stop stop-color="#FF755C"/>
<stop offset="1" stop-color="#FF4181"/>
</linearGradient>
<linearGradient id="paint13_linear" x1="52.4197" y1="9.57012" x2="50.8623" y2="8.01269" gradientUnits="userSpaceOnUse">
<stop stop-color="#7ACBFF"/>
<stop offset="1" stop-color="#45A2E0"/>
</linearGradient>
<linearGradient id="paint14_linear" x1="17.5397" y1="44.4502" x2="15.9823" y2="42.8928" gradientUnits="userSpaceOnUse">
<stop stop-color="#FF9356"/>
<stop offset="1" stop-color="#FF755C"/>
</linearGradient>
<linearGradient id="paint15_linear" x1="51.9098" y1="45.9602" x2="53.4673" y2="44.4027" gradientUnits="userSpaceOnUse">
<stop stop-color="#FFCE47"/>
<stop offset="1" stop-color="#FF9356"/>
</linearGradient>
<linearGradient id="paint16_linear" x1="17.0299" y1="11.0801" x2="18.5873" y2="9.52266" gradientUnits="userSpaceOnUse">
<stop stop-color="#FF4181"/>
<stop offset="1" stop-color="#843561"/>
</linearGradient>
</defs>
</svg>
